# xmcd CD database file
#
# Track frame offsets:
#	150
#	15390
#	41890
#	60692
#	88377
#	119035
#	136492
#	160545
#	176695
#	201655
#	212505
#	237395
#
# Disc length: 3444 seconds
#
# Revision: 0
# Processed by: cddbd v1.5PL3 Copyright (c) Steve Scherf et al.
# Submitted via: CDex 1.50beta9
#
DISCID=b20d720c
DTITLE=Caravan - The Battle Of Hastings
DYEAR=1900
DGENRE=Progressive Rock
TTITLE0=It's A Sad, Sad, Affair
TTITLE1=Somewhere In Your Heart
TTITLE2=Cold As Ice
TTITLE3=Liar
TTITLE4=Don't Want Love
TTITLE5=Travelling Ways
TTITLE6=This Time
TTITLE7=If It Wasn't For Your Ego
TTITLE8=It's Not Real
TTITLE9=Wendy Wants Another 6" Mole
TTITLE10=I Know Why Your're Laughing
TTITLE11=Be Alright - Chance Of A Lifetime
EXTD=
EXTT0=
EXTT1=
EXTT2=
EXTT3=
EXTT4=
EXTT5=
EXTT6=
EXTT7=
EXTT8=
EXTT9=
EXTT10=
EXTT11=
PLAYORDER=
